<svg xmlns="http://www.w3.org/2000/svg" viewBox="0 0 512 512" width="512" height="512" fill="none" data-title="Twisted Polygon Vortex" data-category="12_abstract_distortions" data-tags="abstract,vortex,tunnel,polygon,twisted,3d">
  <title>Twisted Polygon Vortex</title>
  <path d="M 476.0 256.0 L 256.0 476.0 L 36.0 256.0 L 256.0 36.0 Z" fill="none" stroke="currentColor" stroke-width="7" stroke-linecap="round" stroke-linejoin="round" fill-rule="evenodd" />
  <path d="M 458.3 284.43 L 227.57 458.3 L 53.7 227.57 L 284.43 53.7 Z" fill="none" stroke="currentColor" stroke-width="7" stroke-linecap="round" stroke-linejoin="round" fill-rule="evenodd" />
  <path d="M 437.27 307.98 L 204.02 437.27 L 74.73 204.02 L 307.98 74.73 Z" fill="none" stroke="currentColor" stroke-width="7" stroke-linecap="round" stroke-linejoin="round" fill-rule="evenodd" />
  <path d="M 413.91 326.31 L 185.69 413.91 L 98.09 185.69 L 326.31 98.09 Z" fill="none" stroke="currentColor" stroke-width="7" stroke-linecap="round" stroke-linejoin="round" fill-rule="evenodd" />
  <path d="M 389.26 339.27 L 172.73 389.26 L 122.74 172.73 L 339.27 122.74 Z" fill="none" stroke="currentColor" stroke-width="7" stroke-linecap="round" stroke-linejoin="round" fill-rule="evenodd" />
  <path d="M 364.34 346.91 L 165.09 364.34 L 147.66 165.09 L 346.91 147.66 Z" fill="none" stroke="currentColor" stroke-width="7" stroke-linecap="round" stroke-linejoin="round" fill-rule="evenodd" />
  <path d="M 340.12 349.42 L 162.58 340.12 L 171.88 162.58 L 349.42 171.88 Z" fill="none" stroke="currentColor" stroke-width="7" stroke-linecap="round" stroke-linejoin="round" fill-rule="evenodd" />
  <path d="M 317.51 347.19 L 164.81 317.51 L 194.49 164.81 L 347.19 194.49 Z" fill="none" stroke="currentColor" stroke-width="7" stroke-linecap="round" stroke-linejoin="round" fill-rule="evenodd" />
  <path d="M 297.33 340.74 L 171.26 297.33 L 214.67 171.26 L 340.74 214.67 Z" fill="none" stroke="currentColor" stroke-width="7" stroke-linecap="round" stroke-linejoin="round" fill-rule="evenodd" />
  <path d="M 280.28 330.73 L 181.27 280.28 L 231.72 181.27 L 330.73 231.72 Z" fill="none" stroke="currentColor" stroke-width="7" stroke-linecap="round" stroke-linejoin="round" fill-rule="evenodd" />
  <path d="M 266.92 317.9 L 194.1 266.92 L 245.08 194.1 L 317.9 245.08 Z" fill="none" stroke="currentColor" stroke-width="7" stroke-linecap="round" stroke-linejoin="round" fill-rule="evenodd" />
  <path d="M 257.65 303.11 L 208.89 257.65 L 254.35 208.89 L 303.11 254.35 Z" fill="none" stroke="currentColor" stroke-width="7" stroke-linecap="round" stroke-linejoin="round" fill-rule="evenodd" />
  <path d="M 252.71 287.26 L 224.74 252.71 L 259.29 224.74 L 287.26 259.29 Z" fill="none" stroke="currentColor" stroke-width="7" stroke-linecap="round" stroke-linejoin="round" fill-rule="evenodd" />
  <path d="M 252.2 271.25 L 240.75 252.2 L 259.8 240.75 L 271.25 259.8 Z" fill="none" stroke="currentColor" stroke-width="7" stroke-linecap="round" stroke-linejoin="round" fill-rule="evenodd" />
</svg>