<svg xmlns="http://www.w3.org/2000/svg" viewBox="0 0 512 512" width="512" height="512" fill="none" data-title="16-Point Y2K Cyber Star" data-category="01_y2k_cyber_stars" data-tags="y2k,cyber,star,sparkle,16-point,pinch">
  <title>16-Point Y2K Cyber Star</title>
  <path d="M 466 256 C 356.31 265.88 352.46 285.26 450.01 336.36 C 344.9 303.52 333.92 319.95 404.49 404.49 C 319.95 333.92 303.52 344.9 336.36 450.01 C 285.26 352.46 265.88 356.31 256 466 C 246.12 356.31 226.74 352.46 175.64 450.01 C 208.48 344.9 192.05 333.92 107.51 404.49 C 178.08 319.95 167.1 303.52 61.99 336.36 C 159.54 285.26 155.69 265.88 46 256 C 155.69 246.12 159.54 226.74 61.99 175.64 C 167.1 208.48 178.08 192.05 107.51 107.51 C 192.05 178.08 208.48 167.1 175.64 61.99 C 226.74 159.54 246.12 155.69 256 46 C 265.88 155.69 285.26 159.54 336.36 61.99 C 303.52 167.1 319.95 178.08 404.49 107.51 C 333.92 192.05 344.9 208.48 450.01 175.64 C 352.46 226.74 356.31 246.12 466 256 Z" fill="currentColor" fill-rule="evenodd" />
</svg>