<svg xmlns="http://www.w3.org/2000/svg" viewBox="0 0 512 512" width="512" height="512" fill="none" data-title="Diamond Halftone Screen" data-category="11_halftones_optical_grids" data-tags="halftone,diamond,screen,optical,matrix">
  <title>Diamond Halftone Screen</title>
  <path d="M 229.75 70.7404851942814 L 231.2595148057186 72.25 L 229.75 73.7595148057186 L 228.2404851942814 72.25 Z" fill="currentColor" fill-rule="evenodd" />
  <path d="M 282.25 70.7404851942814 L 283.7595148057186 72.25 L 282.25 73.7595148057186 L 280.7404851942814 72.25 Z" fill="currentColor" fill-rule="evenodd" />
  <path d="M 124.75 123.2404851942814 L 126.2595148057186 124.75 L 124.75 126.2595148057186 L 123.2404851942814 124.75 Z" fill="currentColor" fill-rule="evenodd" />
  <path d="M 177.25 121.22529682912361 L 180.7747031708764 124.75 L 177.25 128.2747031708764 L 173.7252968291236 124.75 Z" fill="currentColor" fill-rule="evenodd" />
  <path d="M 229.75 120.03590670958828 L 234.4640932904117 124.75 L 229.75 129.4640932904117 L 225.0359067095883 124.75 Z" fill="currentColor" fill-rule="evenodd" />
  <path d="M 282.25 120.03590670958828 L 286.9640932904117 124.75 L 282.25 129.4640932904117 L 277.5359067095883 124.75 Z" fill="currentColor" fill-rule="evenodd" />
  <path d="M 334.75 121.22529682912361 L 338.27470317087636 124.75 L 334.75 128.2747031708764 L 331.22529682912364 124.75 Z" fill="currentColor" fill-rule="evenodd" />
  <path d="M 387.25 123.2404851942814 L 388.7595148057186 124.75 L 387.25 126.2595148057186 L 385.7404851942814 124.75 Z" fill="currentColor" fill-rule="evenodd" />
  <path d="M 124.75 173.7252968291236 L 128.2747031708764 177.25 L 124.75 180.7747031708764 L 121.22529682912361 177.25 Z" fill="currentColor" fill-rule="evenodd" />
  <path d="M 177.25 171.14429111656884 L 183.35570888343116 177.25 L 177.25 183.35570888343116 L 171.14429111656884 177.25 Z" fill="currentColor" fill-rule="evenodd" />
  <path d="M 229.75 169.38870119777363 L 237.61129880222637 177.25 L 229.75 185.11129880222637 L 221.88870119777363 177.25 Z" fill="currentColor" fill-rule="evenodd" />
  <path d="M 282.25 169.38870119777363 L 290.1112988022264 177.25 L 282.25 185.11129880222637 L 274.3887011977736 177.25 Z" fill="currentColor" fill-rule="evenodd" />
  <path d="M 334.75 171.14429111656884 L 340.85570888343113 177.25 L 334.75 183.35570888343116 L 328.64429111656887 177.25 Z" fill="currentColor" fill-rule="evenodd" />
  <path d="M 387.25 173.7252968291236 L 390.77470317087636 177.25 L 387.25 180.7747031708764 L 383.72529682912364 177.25 Z" fill="currentColor" fill-rule="evenodd" />
  <path d="M 72.25 228.2404851942814 L 73.7595148057186 229.75 L 72.25 231.2595148057186 L 70.7404851942814 229.75 Z" fill="currentColor" fill-rule="evenodd" />
  <path d="M 124.75 225.0359067095883 L 129.4640932904117 229.75 L 124.75 234.4640932904117 L 120.03590670958828 229.75 Z" fill="currentColor" fill-rule="evenodd" />
  <path d="M 177.25 221.88870119777363 L 185.11129880222637 229.75 L 177.25 237.61129880222637 L 169.38870119777363 229.75 Z" fill="currentColor" fill-rule="evenodd" />
  <path d="M 229.75 219.04809703885627 L 240.45190296114373 229.75 L 229.75 240.45190296114373 L 219.04809703885627 229.75 Z" fill="currentColor" fill-rule="evenodd" />
  <path d="M 282.25 219.04809703885627 L 292.95190296114373 229.75 L 282.25 240.45190296114373 L 271.54809703885627 229.75 Z" fill="currentColor" fill-rule="evenodd" />
  <path d="M 334.75 221.88870119777363 L 342.6112988022264 229.75 L 334.75 237.61129880222637 L 326.8887011977736 229.75 Z" fill="currentColor" fill-rule="evenodd" />
  <path d="M 387.25 225.0359067095883 L 391.9640932904117 229.75 L 387.25 234.4640932904117 L 382.5359067095883 229.75 Z" fill="currentColor" fill-rule="evenodd" />
  <path d="M 439.75 228.2404851942814 L 441.2595148057186 229.75 L 439.75 231.2595148057186 L 438.2404851942814 229.75 Z" fill="currentColor" fill-rule="evenodd" />
  <path d="M 72.25 280.7404851942814 L 73.7595148057186 282.25 L 72.25 283.7595148057186 L 70.7404851942814 282.25 Z" fill="currentColor" fill-rule="evenodd" />
  <path d="M 124.75 277.5359067095883 L 129.4640932904117 282.25 L 124.75 286.9640932904117 L 120.03590670958828 282.25 Z" fill="currentColor" fill-rule="evenodd" />
  <path d="M 177.25 274.3887011977736 L 185.11129880222637 282.25 L 177.25 290.1112988022264 L 169.38870119777363 282.25 Z" fill="currentColor" fill-rule="evenodd" />
  <path d="M 229.75 271.54809703885627 L 240.45190296114373 282.25 L 229.75 292.95190296114373 L 219.04809703885627 282.25 Z" fill="currentColor" fill-rule="evenodd" />
  <path d="M 282.25 271.54809703885627 L 292.95190296114373 282.25 L 282.25 292.95190296114373 L 271.54809703885627 282.25 Z" fill="currentColor" fill-rule="evenodd" />
  <path d="M 334.75 274.3887011977736 L 342.6112988022264 282.25 L 334.75 290.1112988022264 L 326.8887011977736 282.25 Z" fill="currentColor" fill-rule="evenodd" />
  <path d="M 387.25 277.5359067095883 L 391.9640932904117 282.25 L 387.25 286.9640932904117 L 382.5359067095883 282.25 Z" fill="currentColor" fill-rule="evenodd" />
  <path d="M 439.75 280.7404851942814 L 441.2595148057186 282.25 L 439.75 283.7595148057186 L 438.2404851942814 282.25 Z" fill="currentColor" fill-rule="evenodd" />
  <path d="M 124.75 331.22529682912364 L 128.2747031708764 334.75 L 124.75 338.27470317087636 L 121.22529682912361 334.75 Z" fill="currentColor" fill-rule="evenodd" />
  <path d="M 177.25 328.64429111656887 L 183.35570888343116 334.75 L 177.25 340.85570888343113 L 171.14429111656884 334.75 Z" fill="currentColor" fill-rule="evenodd" />
  <path d="M 229.75 326.8887011977736 L 237.61129880222637 334.75 L 229.75 342.6112988022264 L 221.88870119777363 334.75 Z" fill="currentColor" fill-rule="evenodd" />
  <path d="M 282.25 326.8887011977736 L 290.1112988022264 334.75 L 282.25 342.6112988022264 L 274.3887011977736 334.75 Z" fill="currentColor" fill-rule="evenodd" />
  <path d="M 334.75 328.64429111656887 L 340.85570888343113 334.75 L 334.75 340.85570888343113 L 328.64429111656887 334.75 Z" fill="currentColor" fill-rule="evenodd" />
  <path d="M 387.25 331.22529682912364 L 390.77470317087636 334.75 L 387.25 338.27470317087636 L 383.72529682912364 334.75 Z" fill="currentColor" fill-rule="evenodd" />
  <path d="M 124.75 385.7404851942814 L 126.2595148057186 387.25 L 124.75 388.7595148057186 L 123.2404851942814 387.25 Z" fill="currentColor" fill-rule="evenodd" />
  <path d="M 177.25 383.72529682912364 L 180.7747031708764 387.25 L 177.25 390.77470317087636 L 173.7252968291236 387.25 Z" fill="currentColor" fill-rule="evenodd" />
  <path d="M 229.75 382.5359067095883 L 234.4640932904117 387.25 L 229.75 391.9640932904117 L 225.0359067095883 387.25 Z" fill="currentColor" fill-rule="evenodd" />
  <path d="M 282.25 382.5359067095883 L 286.9640932904117 387.25 L 282.25 391.9640932904117 L 277.5359067095883 387.25 Z" fill="currentColor" fill-rule="evenodd" />
  <path d="M 334.75 383.72529682912364 L 338.27470317087636 387.25 L 334.75 390.77470317087636 L 331.22529682912364 387.25 Z" fill="currentColor" fill-rule="evenodd" />
  <path d="M 387.25 385.7404851942814 L 388.7595148057186 387.25 L 387.25 388.7595148057186 L 385.7404851942814 387.25 Z" fill="currentColor" fill-rule="evenodd" />
  <path d="M 229.75 438.2404851942814 L 231.2595148057186 439.75 L 229.75 441.2595148057186 L 228.2404851942814 439.75 Z" fill="currentColor" fill-rule="evenodd" />
  <path d="M 282.25 438.2404851942814 L 283.7595148057186 439.75 L 282.25 441.2595148057186 L 280.7404851942814 439.75 Z" fill="currentColor" fill-rule="evenodd" />
</svg>