<svg xmlns="http://www.w3.org/2000/svg" viewBox="0 0 512 512" width="512" height="512" fill="none" data-title="Dither Wave Matrix" data-category="11_halftones_optical_grids" data-tags="dither,wave,matrix,halftone,grid">
  <title>Dither Wave Matrix</title>
  <rect x="63.5" y="63.5" width="7" height="7" fill="currentColor" />
  <rect x="102.67" y="60.67" width="12.66" height="12.66" fill="currentColor" />
  <rect x="144.17" y="60.17" width="13.66" height="13.66" fill="currentColor" />
  <rect x="188.42" y="62.42" width="9.16" height="9.16" fill="currentColor" />
  <rect x="233.56" y="65.56" width="2.89" height="2.89" fill="currentColor" />
  <rect x="317.56" y="65.56" width="2.89" height="2.89" fill="currentColor" />
  <rect x="356.42" y="62.42" width="9.16" height="9.16" fill="currentColor" />
  <rect x="396.17" y="60.17" width="13.66" height="13.66" fill="currentColor" />
  <rect x="438.67" y="60.67" width="12.66" height="12.66" fill="currentColor" />
  <rect x="63.5" y="105.5" width="7" height="7" fill="currentColor" />
  <rect x="103.84" y="103.84" width="10.33" height="10.33" fill="currentColor" />
  <rect x="145.54" y="103.54" width="10.91" height="10.91" fill="currentColor" />
  <rect x="188.86" y="104.86" width="8.27" height="8.27" fill="currentColor" />
  <rect x="232.71" y="106.71" width="4.58" height="4.58" fill="currentColor" />
  <rect x="275.56" y="107.56" width="2.89" height="2.89" fill="currentColor" />
  <rect x="316.71" y="106.71" width="4.58" height="4.58" fill="currentColor" />
  <rect x="356.86" y="104.86" width="8.27" height="8.27" fill="currentColor" />
  <rect x="397.54" y="103.54" width="10.91" height="10.91" fill="currentColor" />
  <rect x="439.84" y="103.84" width="10.33" height="10.33" fill="currentColor" />
  <rect x="63.5" y="147.5" width="7" height="7" fill="currentColor" />
  <rect x="106.38" y="148.38" width="5.25" height="5.25" fill="currentColor" />
  <rect x="148.53" y="148.53" width="4.94" height="4.94" fill="currentColor" />
  <rect x="189.83" y="147.83" width="6.33" height="6.33" fill="currentColor" />
  <rect x="230.86" y="146.86" width="8.27" height="8.27" fill="currentColor" />
  <rect x="272.42" y="146.42" width="9.16" height="9.16" fill="currentColor" />
  <rect x="314.86" y="146.86" width="8.27" height="8.27" fill="currentColor" />
  <rect x="357.83" y="147.83" width="6.33" height="6.33" fill="currentColor" />
  <rect x="400.53" y="148.53" width="4.94" height="4.94" fill="currentColor" />
  <rect x="442.38" y="148.38" width="5.25" height="5.25" fill="currentColor" />
  <rect x="63.5" y="189.5" width="7" height="7" fill="currentColor" />
  <rect x="108.19" y="192.19" width="1.61" height="1.61" fill="currentColor" />
  <rect x="190.53" y="190.53" width="4.94" height="4.94" fill="currentColor" />
  <rect x="229.54" y="187.54" width="10.91" height="10.91" fill="currentColor" />
  <rect x="270.17" y="186.17" width="13.66" height="13.66" fill="currentColor" />
  <rect x="313.54" y="187.54" width="10.91" height="10.91" fill="currentColor" />
  <rect x="358.53" y="190.53" width="4.94" height="4.94" fill="currentColor" />
  <rect x="444.19" y="192.19" width="1.61" height="1.61" fill="currentColor" />
  <rect x="63.5" y="231.5" width="7" height="7" fill="currentColor" />
  <rect x="107.79" y="233.79" width="2.42" height="2.42" fill="currentColor" />
  <rect x="150.19" y="234.19" width="1.61" height="1.61" fill="currentColor" />
  <rect x="190.38" y="232.38" width="5.25" height="5.25" fill="currentColor" />
  <rect x="229.84" y="229.84" width="10.33" height="10.33" fill="currentColor" />
  <rect x="270.67" y="228.67" width="12.66" height="12.66" fill="currentColor" />
  <rect x="313.84" y="229.84" width="10.33" height="10.33" fill="currentColor" />
  <rect x="358.38" y="232.38" width="5.25" height="5.25" fill="currentColor" />
  <rect x="402.19" y="234.19" width="1.61" height="1.61" fill="currentColor" />
  <rect x="443.79" y="233.79" width="2.42" height="2.42" fill="currentColor" />
  <rect x="63.5" y="273.5" width="7" height="7" fill="currentColor" />
  <rect x="105.5" y="273.5" width="7" height="7" fill="currentColor" />
  <rect x="147.5" y="273.5" width="7" height="7" fill="currentColor" />
  <rect x="189.5" y="273.5" width="7" height="7" fill="currentColor" />
  <rect x="231.5" y="273.5" width="7" height="7" fill="currentColor" />
  <rect x="273.5" y="273.5" width="7" height="7" fill="currentColor" />
  <rect x="315.5" y="273.5" width="7" height="7" fill="currentColor" />
  <rect x="357.5" y="273.5" width="7" height="7" fill="currentColor" />
  <rect x="399.5" y="273.5" width="7" height="7" fill="currentColor" />
  <rect x="441.5" y="273.5" width="7" height="7" fill="currentColor" />
  <rect x="63.5" y="315.5" width="7" height="7" fill="currentColor" />
  <rect x="103.21" y="313.21" width="11.58" height="11.58" fill="currentColor" />
  <rect x="144.81" y="312.81" width="12.39" height="12.39" fill="currentColor" />
  <rect x="188.62" y="314.62" width="8.75" height="8.75" fill="currentColor" />
  <rect x="233.16" y="317.16" width="3.67" height="3.67" fill="currentColor" />
  <rect x="317.16" y="317.16" width="3.67" height="3.67" fill="currentColor" />
  <rect x="356.62" y="314.62" width="8.75" height="8.75" fill="currentColor" />
  <rect x="396.81" y="312.81" width="12.39" height="12.39" fill="currentColor" />
  <rect x="439.21" y="313.21" width="11.58" height="11.58" fill="currentColor" />
  <rect x="63.5" y="357.5" width="7" height="7" fill="currentColor" />
  <rect x="102.81" y="354.81" width="12.39" height="12.39" fill="currentColor" />
  <rect x="144.33" y="354.33" width="13.33" height="13.33" fill="currentColor" />
  <rect x="188.47" y="356.47" width="9.06" height="9.06" fill="currentColor" />
  <rect x="233.46" y="359.46" width="3.09" height="3.09" fill="currentColor" />
  <rect x="317.46" y="359.46" width="3.09" height="3.09" fill="currentColor" />
  <rect x="356.47" y="356.47" width="9.06" height="9.06" fill="currentColor" />
  <rect x="396.33" y="354.33" width="13.33" height="13.33" fill="currentColor" />
  <rect x="438.81" y="354.81" width="12.39" height="12.39" fill="currentColor" />
  <rect x="63.5" y="399.5" width="7" height="7" fill="currentColor" />
  <rect x="104.62" y="398.62" width="8.75" height="8.75" fill="currentColor" />
  <rect x="146.47" y="398.47" width="9.06" height="9.06" fill="currentColor" />
  <rect x="189.17" y="399.17" width="7.67" height="7.67" fill="currentColor" />
  <rect x="232.14" y="400.14" width="5.73" height="5.73" fill="currentColor" />
  <rect x="274.58" y="400.58" width="4.84" height="4.84" fill="currentColor" />
  <rect x="316.14" y="400.14" width="5.73" height="5.73" fill="currentColor" />
  <rect x="357.17" y="399.17" width="7.67" height="7.67" fill="currentColor" />
  <rect x="398.47" y="398.47" width="9.06" height="9.06" fill="currentColor" />
  <rect x="440.62" y="398.62" width="8.75" height="8.75" fill="currentColor" />
  <rect x="63.5" y="441.5" width="7" height="7" fill="currentColor" />
  <rect x="107.16" y="443.16" width="3.67" height="3.67" fill="currentColor" />
  <rect x="149.46" y="443.46" width="3.09" height="3.09" fill="currentColor" />
  <rect x="190.14" y="442.14" width="5.73" height="5.73" fill="currentColor" />
  <rect x="230.29" y="440.29" width="9.42" height="9.42" fill="currentColor" />
  <rect x="271.44" y="439.44" width="11.11" height="11.11" fill="currentColor" />
  <rect x="314.29" y="440.29" width="9.42" height="9.42" fill="currentColor" />
  <rect x="358.14" y="442.14" width="5.73" height="5.73" fill="currentColor" />
  <rect x="401.46" y="443.46" width="3.09" height="3.09" fill="currentColor" />
  <rect x="443.16" y="443.16" width="3.67" height="3.67" fill="currentColor" />
</svg>